<svg viewBox="0 0 24 24" xmlns="http://www.w3.org/2000/svg" fill="#FFFFFF">
    <path d="M7 18c-1.1 0-1.99.9-1.99 2s.89 2 1.99 2 2-.9 2-2-.9-2-2-2zm0 3c-.55 0-1-.45-1-1s.45-1 1-1 1 .45 1 1-.45 1-1 1zm10-3c-1.1 0-1.99.9-1.99 2s.89 2 1.99 2 2-.9 2-2-.9-2-2-2zm0 3c-.55 0-1-.45-1-1s.45-1 1-1 1 .45 1 1-.45 1-1 1zM7.82 12.82C8.4 13.46 9.17 14 10 14h8v-2h-7.34l-.95-.96L7 6H3V4h4l3.6 7.59-1.8 1.8L10 13h8.33l.26-1H10.85L7.82 12.82zM1 2h2v2H1V2zm3.38 9.38c.78 0 1.56-.34 2.16-.94l-2.7-5.55C3.29 5.53 2.37 5.86 1.75 6.45 1.17 7.04.83 7.83.83 8.62 0 9.5.67 10 1.5 10h.88z"/>
</svg>
